<svg width="153" height="169" viewBox="0 0 153 169" fill="none" xmlns="http://www.w3.org/2000/svg">
<g filter="url(#filter0_d)">
<path d="M140.694 160.383H22.0801C18.8404 160.383 16.2046 156.839 16.2046 152.482V45.8591C16.2198 44.9705 16.4147 44.1092 16.7638 43.3872C17.113 42.6652 17.6003 42.1159 18.1625 41.8105L73.3917 9.00367C78.4666 6.0222 84.1151 6.01801 89.1921 8.99194L144.609 41.812C145.172 42.1166 145.66 42.6659 146.01 43.3883C146.359 44.1107 146.555 44.9728 146.57 45.8623V152.482C146.57 156.839 143.934 160.383 140.694 160.383Z" fill="#EE66AA"/>
</g>
<path d="M53.6919 87.1106V76.083C53.6919 74.6448 53.3071 73.2654 52.6222 72.2484C51.9374 71.2314 51.0085 70.66 50.0399 70.66H31.3006C30.3321 70.66 29.4032 71.2314 28.7183 72.2484C28.0334 73.2654 27.6487 74.6448 27.6487 76.083V87.1106H53.6919Z" fill="white"/>
<path d="M27.6487 88.8427V105.931C27.6487 107.369 28.0334 108.749 28.7183 109.766C29.4032 110.783 30.3321 111.354 31.3006 111.354H50.0399C51.0085 111.354 51.9374 110.783 52.6222 109.766C53.3071 108.749 53.6919 107.369 53.6919 105.931V88.8427H27.6487Z" fill="white"/>
<path d="M142.059 56.8422L85.7978 26.2161C82.3783 24.3547 78.625 24.3547 75.2055 26.2161L18.9443 56.8422C17.7585 57.4876 16.4853 57.6985 15.2329 57.457C13.9805 57.2154 12.7858 56.5284 11.7504 55.4545C10.7151 54.3806 9.86957 52.9514 9.28576 51.2884C8.70196 49.6253 8.39709 47.7776 8.39709 45.9022V45.9022C8.39709 43.5156 8.89063 41.1865 9.81096 39.23C10.7313 37.2734 12.034 35.7837 13.543 34.9623L75.2055 1.39607C78.625 -0.465358 82.3783 -0.465358 85.7978 1.39607L147.46 34.9623C148.969 35.7837 150.272 37.2734 151.192 39.23C152.113 41.1865 152.606 43.5156 152.606 45.9022V45.9022C152.606 47.7776 152.301 49.6253 151.718 51.2884C151.134 52.9514 150.288 54.3806 149.253 55.4545C148.217 56.5284 147.023 57.2154 145.77 57.457C144.518 57.6985 143.245 57.4876 142.059 56.8422Z" fill="#3F3D56"/>
<path d="M89.5861 160.894H74.5492C72.9534 160.891 71.4235 159.949 70.2951 158.273C69.1667 156.597 68.532 154.326 68.5302 151.956V97.8799C68.532 95.5102 69.1667 93.2383 70.2951 91.5627C71.4235 89.887 72.9534 88.9445 74.5492 88.9418H89.5861C91.1818 88.9445 92.7118 89.887 93.8402 91.5627C94.9685 93.2383 95.6033 95.5102 95.6051 97.8799V151.956C95.6033 154.326 94.9685 156.597 93.8402 158.273C92.7118 159.949 91.1818 160.891 89.5861 160.894V160.894ZM74.5492 90.474C73.227 90.4763 71.9593 91.2573 71.0244 92.6456C70.0894 94.034 69.5635 95.9164 69.562 97.8799V151.956C69.5635 153.919 70.0894 155.802 71.0244 157.19C71.9593 158.578 73.227 159.359 74.5492 159.362H89.5861C90.9083 159.359 92.1759 158.578 93.1109 157.19C94.0458 155.802 94.5717 153.919 94.5733 151.956V97.8799C94.5717 95.9164 94.0458 94.034 93.1109 92.6456C92.1759 91.2573 90.9083 90.4763 89.5861 90.474H74.5492Z" fill="#3F3D56"/>
<path d="M27.8435 105.837C27.0644 105.837 26.3172 106.296 25.7663 107.114C25.2154 107.933 24.9059 109.042 24.9059 110.199C24.9059 111.356 25.2154 112.466 25.7663 113.284C26.3172 114.102 27.0644 114.561 27.8435 114.561H53.498C54.2771 114.561 55.0243 114.102 55.5752 113.284C56.1261 112.466 56.4356 111.356 56.4356 110.199C56.4356 109.042 56.1261 107.933 55.5752 107.114C55.0243 106.296 54.2771 105.837 53.498 105.837H27.8435Z" fill="#CCCCCC"/>
<path d="M107.527 88.8427V105.931C107.527 107.369 107.912 108.749 108.597 109.766C109.282 110.783 110.211 111.354 111.179 111.354H129.919C130.887 111.354 131.816 110.783 132.501 109.766C133.186 108.749 133.57 107.369 133.57 105.931V88.8427H107.527Z" fill="white"/>
<path d="M133.57 87.1106V76.083C133.57 74.6448 133.186 73.2654 132.501 72.2484C131.816 71.2314 130.887 70.66 129.919 70.66H111.179C110.211 70.66 109.282 71.2314 108.597 72.2484C107.912 73.2654 107.527 74.6448 107.527 76.083V87.1106H133.57Z" fill="white"/>
<path d="M91.0075 126.65C92.1882 126.65 93.1454 125.228 93.1454 123.475C93.1454 121.722 92.1882 120.3 91.0075 120.3C89.8268 120.3 88.8696 121.722 88.8696 123.475C88.8696 125.228 89.8268 126.65 91.0075 126.65Z" fill="#3F3D56"/>
<path d="M1.6211 108.288C2.51641 108.288 3.2422 107.21 3.2422 105.88C3.2422 104.551 2.51641 103.473 1.6211 103.473C0.725791 103.473 0 104.551 0 105.88C0 107.21 0.725791 108.288 1.6211 108.288Z" fill="white"/>
<path d="M133.182 115.072H107.528C106.657 115.072 105.823 114.559 105.207 113.645C104.592 112.731 104.246 111.492 104.246 110.199C104.246 108.907 104.592 107.667 105.207 106.753C105.823 105.84 106.657 105.326 107.528 105.326H133.182C134.052 105.326 134.887 105.84 135.503 106.753C136.118 107.667 136.464 108.907 136.464 110.199C136.464 111.492 136.118 112.731 135.503 113.645C134.887 114.559 134.052 115.072 133.182 115.072Z" fill="#CCCCCC"/>
<defs>
<filter id="filter0_d" x="12.2046" y="6.76453" width="138.365" height="161.619" filterUnits="userSpaceOnUse" color-interpolation-filters="sRGB">
<feFlood flood-opacity="0" result="BackgroundImageFix"/>
<feColorMatrix in="SourceAlpha" type="matrix" values="0 0 0 0 0 0 0 0 0 0 0 0 0 0 0 0 0 0 127 0" result="hardAlpha"/>
<feOffset dy="4"/>
<feGaussianBlur stdDeviation="2"/>
<feComposite in2="hardAlpha" operator="out"/>
<feColorMatrix type="matrix" values="0 0 0 0 0 0 0 0 0 0 0 0 0 0 0 0 0 0 0.25 0"/>
<feBlend mode="normal" in2="BackgroundImageFix" result="effect1_dropShadow"/>
<feBlend mode="normal" in="SourceGraphic" in2="effect1_dropShadow" result="shape"/>
</filter>
</defs>
</svg>
