<svg width="580" height="300" viewBox="0 0 580 300" fill="none" xmlns="http://www.w3.org/2000/svg">
<path d="M534.406 299.412C542.892 299.412 549.771 298.36 549.771 297.062C549.771 295.763 542.892 294.711 534.406 294.711C525.921 294.711 519.042 295.763 519.042 297.062C519.042 298.36 525.921 299.412 534.406 299.412Z" fill="#F2F2F2"/>
<path d="M552.331 72.5759H551.051V97.2576H552.331V72.5759Z" fill="#F2F2F2"/>
<path d="M538.247 56.7091H530.565V300H538.247V56.7091Z" fill="#F2F2F2"/>
<path d="M569.576 75.808H499.236C498.465 75.8081 497.702 75.6575 496.999 75.3662C496.295 75.075 495.668 74.6498 495.157 74.1188C494.646 73.5878 494.265 72.9632 494.037 72.2864C493.809 71.6097 493.741 70.8962 493.837 70.1934L502.799 4.37559C502.966 3.1682 503.606 2.05783 504.6 1.25241C505.594 0.446981 506.873 0.00172161 508.199 0H560.614C561.939 0.00172144 563.219 0.446981 564.213 1.25241C565.207 2.05783 565.847 3.1682 566.013 4.37559L574.976 70.1934C575.071 70.8962 575.003 71.6097 574.776 72.2865C574.548 72.9632 574.166 73.5878 573.656 74.1188C573.145 74.6498 572.517 75.075 571.814 75.3662C571.111 75.6575 570.348 75.8081 569.576 75.808Z" fill="#F2F2F2"/>
<path d="M551.691 101.371C554.166 101.371 556.172 99.5295 556.172 97.2576C556.172 94.9857 554.166 93.144 551.691 93.144C549.216 93.144 547.21 94.9857 547.21 97.2576C547.21 99.5295 549.216 101.371 551.691 101.371Z" fill="#F2F2F2"/>
<path d="M80.3807 234.69C77.1465 244.99 67.7029 252.199 57.852 258.324C56.4766 259.179 55.1007 260.015 53.7244 260.831C53.7151 260.835 53.7054 260.843 53.696 260.847C53.6298 260.886 53.5634 260.925 53.5018 260.964C53.2177 261.132 52.9335 261.3 52.6518 261.466L52.8066 261.53C52.8066 261.53 52.9585 261.604 52.7923 261.542C52.7428 261.523 52.691 261.506 52.6416 261.487C46.9189 259.368 41.0945 257.093 36.7089 253.124C32.1595 249.003 29.5008 242.538 31.9643 237.124C32.2881 236.414 32.6971 235.74 33.1837 235.114C33.3835 234.852 33.5987 234.601 33.8228 234.354C35.1817 232.832 36.9577 231.669 38.9684 230.986C40.979 230.302 43.1517 230.123 45.263 230.466C47.3743 230.808 49.348 231.661 50.9811 232.937C52.6143 234.212 53.848 235.863 54.5553 237.721C55.279 231.536 49.7227 226.354 44.3756 222.531C39.0262 218.71 32.9477 214.549 31.9135 208.398C31.3359 204.975 32.6324 201.659 34.9942 198.996C35.0673 198.915 35.1403 198.834 35.2156 198.756C38.0905 195.655 42.134 193.663 46.5385 193.18C54.7412 192.397 62.7089 196.383 68.668 201.618C78.2591 210.041 84.0574 222.979 80.3807 234.69Z" fill="#F2F2F2"/>
<path d="M64.9626 221.218C66.5368 223.467 67.7455 225.914 68.5504 228.482C69.2311 230.778 69.534 233.154 69.4492 235.532C69.2296 240.426 67.7331 245.199 65.0856 249.451C63.0913 252.676 60.6608 255.658 57.852 258.324C56.4766 259.179 55.1007 260.015 53.7244 260.831C53.715 260.835 53.7054 260.843 53.696 260.846C53.6298 260.886 53.5634 260.925 53.5017 260.964C53.2177 261.132 52.9335 261.3 52.6518 261.466C52.6518 261.466 52.9585 261.604 52.7923 261.542C52.7428 261.523 52.691 261.506 52.6416 261.487C53.1545 257.627 52.652 253.71 51.1763 250.065C49.7006 246.42 47.2946 243.152 44.1599 240.536C41.0177 237.96 37.2567 236.103 33.1837 235.114C33.3835 234.852 33.5987 234.601 33.8228 234.354C35.3959 234.759 36.9269 235.291 38.3979 235.943C43.6564 238.261 47.9621 242.072 50.6777 246.811C53.1145 251.115 54.1633 255.967 53.7009 260.798C53.936 260.603 54.1714 260.403 54.3998 260.205C58.7484 256.483 62.6109 252.211 65.2249 247.281C67.4927 243.106 68.6073 238.483 68.4705 233.819C68.2572 228.734 66.05 224.024 62.8543 219.924C59.3517 215.549 55.214 211.634 50.5561 208.289C45.862 204.837 40.7254 201.926 35.2609 199.621C35.1377 199.568 35.0413 199.473 34.9916 199.357C34.942 199.241 34.9429 199.112 34.9942 198.996C35.0306 198.892 35.1102 198.806 35.2156 198.756C35.2699 198.734 35.3287 198.724 35.3877 198.727C35.4467 198.729 35.5044 198.743 35.5565 198.769C36.2312 199.054 36.9012 199.343 37.5658 199.645C43.1015 202.156 48.2759 205.29 52.97 208.972C57.5042 212.521 61.773 216.575 64.9626 221.218Z" fill="white"/>
<path d="M33.6895 260.627H69.132C69.5207 260.627 69.9051 260.703 70.2595 260.849C70.6139 260.996 70.9302 261.21 71.1875 261.478C71.4448 261.746 71.6372 262.06 71.7518 262.401C71.8665 262.742 71.9009 263.102 71.8526 263.456L67.3366 296.62C67.2529 297.228 66.9304 297.788 66.4296 298.194C65.9288 298.599 65.284 298.824 64.616 298.825H38.2055C37.5374 298.824 36.8927 298.599 36.3919 298.194C35.8911 297.788 35.5686 297.228 35.4848 296.62L30.9688 263.456C30.9206 263.102 30.9549 262.742 31.0696 262.401C31.1843 262.06 31.3767 261.746 31.634 261.478C31.8912 261.21 32.2076 260.996 32.562 260.849C32.9164 260.703 33.3007 260.627 33.6895 260.627Z" fill="#F2F2F2"/>
<path d="M149.249 299.079C151.699 299.079 153.685 297.257 153.685 295.008C153.685 292.759 151.699 290.936 149.249 290.936C146.8 290.936 144.814 292.759 144.814 295.008C144.814 297.257 146.8 299.079 149.249 299.079Z" fill="#CCCCCC"/>
<path d="M429.432 299.079C431.881 299.079 433.867 297.257 433.867 295.008C433.867 292.759 431.881 290.936 429.432 290.936C426.982 290.936 424.996 292.759 424.996 295.008C424.996 297.257 426.982 299.079 429.432 299.079Z" fill="#CCCCCC"/>
<path d="M230.569 238.343H161.078C157.844 238.34 154.743 237.159 152.457 235.06C150.17 232.961 148.883 230.114 148.88 227.146V183.714C148.883 180.745 150.17 177.899 152.457 175.8C154.743 173.701 157.844 172.52 161.078 172.517H230.569C233.803 172.52 236.903 173.701 239.19 175.8C241.477 177.899 242.763 180.745 242.767 183.714V227.146C242.763 230.114 241.477 232.961 239.19 235.06C236.903 237.159 233.803 238.34 230.569 238.343Z" fill="#E6E6E6"/>
<path d="M324.086 238.682H254.595C251.361 238.679 248.261 237.498 245.974 235.399C243.687 233.3 242.401 230.454 242.397 227.485V184.053C242.401 181.085 243.687 178.239 245.974 176.139C248.261 174.04 251.361 172.859 254.595 172.856H324.086C327.32 172.859 330.421 174.04 332.707 176.139C334.994 178.239 336.28 181.085 336.284 184.053V227.485C336.28 230.454 334.994 233.3 332.707 235.399C330.421 237.498 327.32 238.679 324.086 238.682Z" fill="#E6E6E6"/>
<path d="M417.603 239.022H348.112C344.878 239.018 341.778 237.838 339.491 235.738C337.204 233.639 335.918 230.793 335.914 227.824V184.393C335.918 181.424 337.204 178.578 339.491 176.479C341.778 174.38 344.878 173.199 348.112 173.196H417.603C420.837 173.199 423.938 174.38 426.225 176.479C428.511 178.578 429.798 181.424 429.801 184.393V227.825C429.798 230.793 428.511 233.639 426.225 235.738C423.938 237.838 420.837 239.018 417.603 239.022Z" fill="#E6E6E6"/>
<path d="M444.217 235.968H138.16V294.669H444.217V235.968Z" fill="#E6E6E6"/>
<path d="M149.249 295.008H135.943C129.217 295.008 123.745 289.305 123.745 282.294V221.038H149.249V295.008Z" fill="#E6E6E6"/>
<path d="M442.739 295.008H429.432V211.538H454.936V280.661C454.936 288.572 449.464 295.008 442.739 295.008Z" fill="#E6E6E6"/>
<path d="M243.136 248.183H149.249V229.86C180.545 213.381 211.841 213.381 243.136 229.86V248.183Z" fill="#CCCCCC"/>
<path d="M336.654 248.522H242.767V230.2C274.063 213.72 305.358 213.72 336.654 230.2V248.522Z" fill="#CCCCCC"/>
<path d="M430.171 248.862H336.284V230.539C367.58 214.06 398.875 214.06 430.171 230.539V248.862Z" fill="#CCCCCC"/>
<path d="M131.137 236.647C143.182 236.647 152.946 227.684 152.946 216.627C152.946 205.571 143.182 196.608 131.137 196.608C119.093 196.608 109.329 205.571 109.329 216.627C109.329 227.684 119.093 236.647 131.137 236.647Z" fill="#CCCCCC"/>
<path d="M450.501 235.968C462.545 235.968 472.309 227.005 472.309 215.949C472.309 204.892 462.545 195.929 450.501 195.929C438.456 195.929 428.692 204.892 428.692 215.949C428.692 227.005 438.456 235.968 450.501 235.968Z" fill="#CCCCCC"/>
<path d="M386.259 176.729C386.31 177.051 386.333 177.376 386.328 177.701L412.469 194.24L419.44 191.211L425.796 200.271L414.022 206.735C413.071 207.257 411.961 207.482 410.859 207.376C409.757 207.27 408.722 206.838 407.91 206.146L381.435 183.59C380.122 183.93 378.727 183.894 377.436 183.488C376.145 183.081 375.019 182.324 374.209 181.316C373.398 180.308 372.941 179.098 372.898 177.846C372.855 176.594 373.229 175.359 373.969 174.307C374.709 173.254 375.78 172.434 377.041 171.954C378.302 171.474 379.691 171.358 381.026 171.621C382.36 171.884 383.575 172.513 384.51 173.426C385.445 174.338 386.055 175.491 386.259 176.729V176.729Z" fill="#FFB8B8"/>
<path d="M412.973 192.817C413.088 192.452 413.287 192.114 413.557 191.826C413.828 191.538 414.162 191.307 414.539 191.149L427.683 185.62C429.458 184.56 431.619 184.188 433.692 184.588C435.765 184.987 437.58 186.125 438.741 187.751C439.901 189.377 440.312 191.36 439.883 193.264C439.454 195.168 438.219 196.838 436.451 197.908L425.584 206.728C425.274 206.98 424.909 207.167 424.512 207.277C424.116 207.388 423.699 207.418 423.289 207.367C422.878 207.316 422.485 207.184 422.135 206.981C421.785 206.778 421.488 206.508 421.262 206.189L413.325 194.995C413.099 194.677 412.951 194.317 412.89 193.942C412.829 193.566 412.857 193.182 412.973 192.817Z" fill="white"/>
<path d="M385.93 177.807L385.799 177.816L385.44 173.264C385.325 171.809 384.3 170.692 383.15 170.768L375.528 171.275C374.378 171.351 372.261 172.677 372.376 174.132L372.469 175.304L374.344 199.102C374.459 200.557 376.761 201.59 377.911 201.513L385.533 201.007C386.683 200.931 387.523 199.689 387.408 198.234L386.054 181.056L386.185 181.047L385.93 177.807Z" fill="#3F3D56"/>
<path d="M384.998 173.312L386.963 198.245C387.049 199.332 386.422 200.259 385.563 200.316L377.905 200.825C377.046 200.882 376.28 200.047 376.195 198.961L374.229 174.027C374.144 172.941 374.77 172.014 375.629 171.957L376.558 171.895C376.494 172.117 376.508 172.352 376.598 172.566C376.688 172.78 376.85 172.962 377.06 173.087C377.149 173.126 377.246 173.143 377.344 173.137L381.711 172.847C382.119 172.82 382.416 172.379 382.375 171.862C382.366 171.743 382.338 171.626 382.293 171.514L383.288 171.448C384.147 171.391 384.912 172.226 384.998 173.312Z" fill="white"/>
<path d="M277.556 230.885L275.029 224.064L302.489 211.874L306.218 221.942L277.556 230.885Z" fill="#FFB8B8"/>
<path d="M270.997 234.873L262.852 212.879L263.155 212.784C264.38 212.402 265.674 212.245 266.965 212.322C268.256 212.399 269.518 212.709 270.678 213.234C271.838 213.758 272.875 214.488 273.728 215.38C274.581 216.272 275.235 217.31 275.651 218.435L275.651 218.435L280.626 231.868L270.997 234.873Z" fill="#2F2E41"/>
<path d="M386.54 235.754C380.651 236.057 374.778 234.929 369.516 232.482L337.227 212.317L299.523 225.134C298.523 225.446 297.43 225.398 296.466 225C295.502 224.602 294.739 223.882 294.33 222.987L292.482 218.907C292.061 217.99 292.048 216.957 292.448 216.031C292.848 215.105 293.628 214.36 294.62 213.957L330.64 199.107C334.965 197.331 339.816 196.946 344.409 198.014L394.415 209.712L407.633 224.121L407.486 224.307C400.997 232.525 393.3 235.305 386.54 235.754Z" fill="#2F2E41"/>
<path d="M427.38 175.542C436.064 175.542 443.103 169.08 443.103 161.108C443.103 153.137 436.064 146.675 427.38 146.675C418.696 146.675 411.657 153.137 411.657 161.108C411.657 169.08 418.696 175.542 427.38 175.542Z" fill="#FFB8B8"/>
<path d="M411.24 230.546L385.934 213.258L403.192 201.999C402.699 200.541 400.509 192.203 412.485 186.52C416.276 184.721 419.007 183.172 420.603 181.918C422.867 180.125 425.768 179.153 428.758 179.187C430.642 179.214 432.494 179.644 434.167 180.442C435.839 181.24 437.287 182.385 438.394 183.785C439.502 185.185 440.239 186.803 440.547 188.51C440.856 190.217 440.728 191.967 440.173 193.62C437.675 201.072 433.697 210.946 428.928 215.668C423.533 221.003 417.682 225.934 411.431 230.414L411.24 230.546Z" fill="white"/>
<path d="M281.568 236.93L279.042 230.109L306.502 217.919L310.23 227.986L281.568 236.93Z" fill="#FFB8B8"/>
<path d="M275.01 240.917L266.864 218.923L267.167 218.829C268.392 218.446 269.687 218.289 270.978 218.366C272.268 218.443 273.53 218.753 274.69 219.278C275.851 219.803 276.887 220.532 277.741 221.424C278.594 222.317 279.247 223.355 279.664 224.479L279.664 224.479L284.639 237.913L275.01 240.917Z" fill="#2F2E41"/>
<path d="M390.553 241.798C384.663 242.102 378.791 240.973 373.529 238.526L341.239 218.362L303.536 231.178C302.535 231.49 301.442 231.443 300.479 231.044C299.515 230.646 298.751 229.927 298.342 229.032L296.494 224.952C296.073 224.034 296.061 223.001 296.461 222.075C296.86 221.149 297.64 220.404 298.632 220.001L334.653 205.152C338.978 203.376 343.829 202.99 348.422 204.059L398.427 215.756L411.645 230.166L411.498 230.351C405.01 238.569 397.313 241.349 390.553 241.798Z" fill="#2F2E41"/>
<path d="M383.295 194.043C383.491 194.314 383.663 194.599 383.811 194.895L415.148 199.567L420.035 194.09L430.005 199.779L422.38 210.248C421.764 211.094 420.866 211.733 419.82 212.071C418.774 212.408 417.638 212.425 416.581 212.118L382.136 202.14C381.107 202.963 379.83 203.479 378.474 203.619C377.117 203.759 375.747 203.517 374.544 202.925C373.342 202.333 372.364 201.418 371.742 200.304C371.119 199.189 370.881 197.927 371.058 196.685C371.236 195.443 371.822 194.28 372.737 193.351C373.653 192.422 374.854 191.771 376.183 191.484C377.511 191.197 378.903 191.288 380.174 191.746C381.444 192.203 382.533 193.004 383.295 194.043Z" fill="#FFB8B8"/>
<path d="M414.94 198.083C414.873 197.708 414.896 197.324 415.006 196.958C415.116 196.591 415.311 196.251 415.577 195.96L424.877 185.798C425.987 184.141 427.766 182.957 429.826 182.503C431.885 182.049 434.057 182.363 435.864 183.377C437.671 184.391 438.967 186.021 439.467 187.91C439.967 189.8 439.631 191.794 438.531 193.456L432.825 205.698C432.662 206.047 432.419 206.36 432.113 206.616C431.806 206.871 431.443 207.063 431.049 207.178C430.654 207.293 430.237 207.328 429.826 207.282C429.415 207.236 429.02 207.109 428.668 206.91L416.274 199.913C415.921 199.714 415.62 199.448 415.389 199.132C415.159 198.816 415.006 198.458 414.94 198.083Z" fill="white"/>
<path d="M423.176 177.004C427.745 171.608 430.279 164.995 430.395 158.161C428.244 159.628 425.81 160.708 423.221 161.342C420.474 162.014 417.453 162.149 414.866 161.067C411.224 159.544 409.07 155.66 409.484 152.007C409.897 148.353 412.648 145.089 416.229 143.45C419.895 141.876 424.077 141.644 427.923 142.8C429.958 141.21 432.45 140.191 435.099 139.867C437.748 139.542 440.443 139.925 442.861 140.97C448.427 143.478 451.505 149.285 452.039 154.955C452.573 160.625 450.986 166.262 449.412 171.767L449.235 172.389C448.745 174.103 447.321 177.391 447.321 177.391C447.321 177.391 439.053 175.893 435.768 174.933C431.006 176.513 423.176 177.004 423.176 177.004Z" fill="#2F2E41"/>
<path d="M383.762 178.387L377.025 178.835C376.856 178.846 376.688 178.795 376.56 178.693C376.432 178.591 376.353 178.447 376.34 178.291C376.328 178.136 376.384 177.982 376.495 177.864C376.606 177.746 376.763 177.674 376.933 177.663L383.67 177.215C383.754 177.209 383.838 177.219 383.918 177.243C383.998 177.267 384.072 177.306 384.136 177.356C384.199 177.407 384.251 177.468 384.289 177.537C384.327 177.606 384.35 177.682 384.356 177.759C384.362 177.836 384.351 177.913 384.325 177.987C384.298 178.06 384.256 178.128 384.201 178.186C384.146 178.244 384.079 178.292 384.003 178.327C383.928 178.361 383.846 178.382 383.762 178.387Z" fill="#3F3D56"/>
<path d="M383.993 181.318L377.256 181.765C377.172 181.771 377.088 181.762 377.008 181.737C376.928 181.713 376.854 181.675 376.79 181.624C376.726 181.574 376.674 181.512 376.636 181.443C376.599 181.374 376.576 181.299 376.57 181.222C376.564 181.145 376.574 181.067 376.601 180.994C376.627 180.921 376.67 180.853 376.725 180.794C376.78 180.736 376.847 180.688 376.922 180.654C376.998 180.619 377.08 180.599 377.164 180.593L383.901 180.146C384.07 180.134 384.237 180.185 384.366 180.287C384.494 180.389 384.573 180.534 384.585 180.689C384.598 180.845 384.542 180.998 384.431 181.116C384.32 181.234 384.162 181.307 383.993 181.318Z" fill="#3F3D56"/>
<path d="M384.224 184.249L377.487 184.696C377.318 184.707 377.151 184.656 377.023 184.554C376.895 184.452 376.816 184.307 376.804 184.152C376.791 183.997 376.847 183.844 376.958 183.726C377.068 183.608 377.226 183.535 377.395 183.524L384.132 183.076C384.301 183.065 384.468 183.116 384.597 183.218C384.725 183.32 384.804 183.465 384.816 183.62C384.829 183.775 384.773 183.929 384.662 184.047C384.551 184.165 384.393 184.237 384.224 184.249Z" fill="#3F3D56"/>
<path d="M307.784 104.309H243.126C241.598 104.308 240.134 103.75 239.054 102.759C237.974 101.767 237.366 100.423 237.364 99.0205V47.8942C237.366 46.492 237.974 45.1477 239.054 44.1561C240.134 43.1646 241.598 42.6069 243.126 42.6053H307.784C309.311 42.6069 310.776 43.1646 311.856 44.1562C312.936 45.1477 313.544 46.492 313.545 47.8942V99.0205C313.544 100.423 312.936 101.767 311.856 102.759C310.776 103.75 309.311 104.308 307.784 104.309ZM243.126 43.7806C241.938 43.7818 240.799 44.2156 239.959 44.9868C239.119 45.758 238.646 46.8036 238.645 47.8942V99.0205C238.646 100.111 239.119 101.157 239.959 101.928C240.799 102.699 241.938 103.133 243.126 103.134H307.784C308.972 103.133 310.111 102.699 310.951 101.928C311.791 101.157 312.264 100.111 312.265 99.0205V47.8942C312.264 46.8036 311.791 45.758 310.951 44.9868C310.111 44.2156 308.972 43.7818 307.784 43.7806H243.126Z" fill="#F2F2F2"/>
<path d="M298.33 96.3761H252.579C251.137 96.3746 249.754 95.8479 248.733 94.9114C247.713 93.975 247.14 92.7053 247.138 91.381V55.5338C247.14 54.2095 247.713 52.9398 248.733 52.0034C249.754 51.0669 251.137 50.5402 252.579 50.5387H298.33C299.773 50.5402 301.156 51.0669 302.176 52.0034C303.196 52.9398 303.77 54.2095 303.772 55.5338V91.381C303.77 92.7053 303.196 93.975 302.176 94.9114C301.156 95.8479 299.773 96.3746 298.33 96.3761Z" fill="#E6E6E6"/>
<path d="M275.775 34.9657C277.543 34.9657 278.976 33.6502 278.976 32.0274C278.976 30.4046 277.543 29.0891 275.775 29.0891C274.007 29.0891 272.574 30.4046 272.574 32.0274C272.574 33.6502 274.007 34.9657 275.775 34.9657Z" fill="#F2F2F2"/>
<path d="M282.505 43.4951L275.777 33.174L269.087 43.4933L267.986 42.8927L275.773 30.881L283.603 42.891L282.505 43.4951Z" fill="#F2F2F2"/>
<path d="M283.137 69.3438C283.135 68.4544 283.029 67.5678 282.82 66.6993H273.214C272.535 66.6994 271.884 66.947 271.404 67.3878C270.923 67.8287 270.654 68.4266 270.654 69.05V81.6401C274.042 81.4193 277.214 80.0281 279.531 77.7465C281.847 75.465 283.136 72.4625 283.137 69.3438Z" fill="white"/>
<path d="M269.693 82.2723C267.037 82.2732 264.434 81.5844 262.186 80.2855C259.938 78.9866 258.136 77.1306 256.988 74.9317C255.84 72.7327 255.392 70.2806 255.698 67.8583C256.003 65.436 257.048 63.1423 258.713 61.242C260.377 59.3417 262.594 57.9124 265.105 57.1189C267.617 56.3254 270.322 56.2002 272.908 56.7577C275.494 57.3152 277.856 58.5327 279.72 60.2696C281.585 62.0066 282.876 64.1921 283.445 66.5739L283.615 67.287H273.214C272.705 67.2875 272.217 67.4734 271.857 67.8039C271.497 68.1344 271.294 68.5826 271.294 69.05V82.1877L270.588 82.2336C270.291 82.2533 269.995 82.2723 269.693 82.2723ZM269.693 57.5906C266.298 57.5906 263.041 58.8289 260.64 61.033C258.239 63.2372 256.89 66.2267 256.89 69.3438C256.89 72.4609 258.239 75.4504 260.64 77.6545C263.041 79.8587 266.298 81.097 269.693 81.097C269.801 81.097 269.907 81.0941 270.013 81.0895V69.05C270.014 68.271 270.352 67.5241 270.952 66.9733C271.552 66.4224 272.366 66.1126 273.214 66.1117H281.998C281.223 63.663 279.606 61.5102 277.388 59.9745C275.17 58.4388 272.471 57.6025 269.693 57.5906Z" fill="white"/>
<path d="M288.579 86.0921H273.214C272.366 86.0912 271.552 85.7813 270.952 85.2305C270.352 84.6797 270.014 83.9328 270.013 83.1538V81.0927L270.608 81.054C272.441 80.9378 274.225 80.46 275.838 79.653C277.451 78.8461 278.856 77.7291 279.956 76.3783C281.056 75.0275 281.825 73.4748 282.211 71.8261C282.598 70.1773 282.592 68.4715 282.194 66.825L282.024 66.1117H288.579C289.427 66.1126 290.241 66.4225 290.841 66.9733C291.441 67.5241 291.778 68.271 291.779 69.05V83.1538C291.778 83.9328 291.441 84.6797 290.841 85.2305C290.241 85.7813 289.427 86.0912 288.579 86.0921ZM271.294 82.1759V83.1538C271.294 83.6212 271.497 84.0693 271.857 84.3998C272.217 84.7303 272.705 84.9163 273.214 84.9168H288.579C289.088 84.9163 289.576 84.7303 289.936 84.3998C290.296 84.0693 290.498 83.6212 290.499 83.1538V69.05C290.498 68.5826 290.296 68.1345 289.936 67.804C289.576 67.4734 289.088 67.2875 288.579 67.287H283.593C283.715 67.967 283.776 68.6548 283.777 69.3438C283.765 72.5139 282.489 75.5701 280.188 77.9346C277.888 80.2991 274.724 81.808 271.294 82.1759Z" fill="white"/>
</svg>
