<svg width="618" height="384" viewBox="0 0 618 384" fill="none" xmlns="http://www.w3.org/2000/svg">
<g clip-path="url(#clip0)">
<path d="M188.031 365.218C177.864 376.626 156.76 377.826 156.76 377.826C156.76 377.826 152.139 360.532 162.306 349.125C172.473 337.718 193.578 336.517 193.578 336.517C193.578 336.517 198.198 353.811 188.031 365.218Z" fill="#E6E6E6"/>
<path d="M136.239 369.507C142.948 377.034 156.874 377.826 156.874 377.826C156.874 377.826 159.923 366.414 153.214 358.887C146.505 351.36 132.579 350.567 132.579 350.567C132.579 350.567 129.53 361.979 136.239 369.507Z" fill="#E6E6E6"/>
<path d="M181.725 378.512H0V377.268H181.994L181.725 378.512Z" fill="#3F3D56"/>
<path d="M618 35.2708H496.966V186.641H618V35.2708Z" fill="#E6E6E6"/>
<path d="M611.537 43.3535H503.428V178.558H611.537V43.3535Z" fill="white"/>
<path d="M579.397 139.56H574.164V154.735H579.397V139.56Z" fill="#3F3D56"/>
<path d="M582.963 152.51L569.938 139.391H544.579L529.082 152.037L529.395 152.206H529.283V178.51H582.818V152.206L582.963 152.51Z" fill="#3F3D56"/>
<path d="M570.139 139.222L554.239 154.84V178.51H582.818V151.868L570.139 139.222Z" fill="#EE66AA"/>
<path d="M571.548 165.42H565.711V169.742H571.548V165.42Z" fill="#3F3D56"/>
<path d="M571.548 157.939H565.711V162.192H571.548V157.939Z" fill="#3F3D56"/>
<path d="M571.548 165.42H565.711V169.742H571.548V165.42Z" fill="white"/>
<path d="M571.548 157.939H565.711V162.192H571.548V157.939Z" fill="white"/>
<path d="M550.276 177.738C550.276 177.738 550.401 175.542 552.966 175.797L550.276 177.738Z" fill="#E6E6E6"/>
<path d="M549.551 175.648C550.26 175.648 550.835 175.167 550.835 174.573C550.835 173.979 550.26 173.497 549.551 173.497C548.842 173.497 548.267 173.979 548.267 174.573C548.267 175.167 548.842 175.648 549.551 175.648Z" fill="#EE66AA"/>
<path d="M549.705 176.384H549.342V178.509H549.705V176.384Z" fill="#E6E6E6"/>
<path d="M452.235 35.2708H331.201V186.641H452.235V35.2708Z" fill="#E6E6E6"/>
<path d="M445.772 43.3535H337.664V178.558H445.772V43.3535Z" fill="white"/>
<path d="M535.291 93.6982L538.406 91.6108C535.986 91.3871 534.992 92.4928 534.585 93.3681C533.286 93.0071 531.872 93.0803 530.636 93.5723L536.869 95.468C536.554 94.7644 536.007 94.1505 535.291 93.6982Z" fill="#3F3D56"/>
<path d="M400.778 89.6108L403.894 87.5234C401.474 87.2997 400.479 88.4055 400.072 89.2807C398.774 88.9197 397.359 88.9929 396.123 89.4849L402.356 91.3807C402.042 90.677 401.495 90.0631 400.778 89.6108Z" fill="#3F3D56"/>
<path d="M577.688 73.9802L580.803 71.8928C578.383 71.6691 577.389 72.7748 576.982 73.65C575.683 73.2891 574.268 73.3623 573.033 73.8543L579.266 75.75C578.951 75.0464 578.404 74.4325 577.688 73.9802Z" fill="#3F3D56"/>
<path d="M417.579 124.572H412.346V139.747H417.579V124.572Z" fill="#3F3D56"/>
<path d="M417.579 123.054H412.346V138.229H417.579V123.054Z" fill="#3F3D56"/>
<path d="M425.486 142.409L407.625 124.636H372.58L351.164 142.113L351.596 142.345H351.442V178.697H425.425V142.345L425.486 142.409Z" fill="#3F3D56"/>
<path d="M407.903 124.403L385.93 145.985V178.697H425.425V141.879L407.903 124.403Z" fill="#EE66AA"/>
<path d="M404.282 160.038H396.216V166.58H404.282V160.038Z" fill="#3F3D56"/>
<path d="M404.282 150.268H396.216V156.81H404.282V150.268Z" fill="#3F3D56"/>
<path d="M404.282 160.038H396.216V166.58H404.282V160.038Z" fill="white"/>
<path d="M404.282 150.268H396.216V156.81H404.282V150.268Z" fill="white"/>
<path d="M416.08 160.038H408.014V166.58H416.08V160.038Z" fill="#3F3D56"/>
<path d="M416.08 150.268H408.014V156.81H416.08V150.268Z" fill="#3F3D56"/>
<path d="M416.08 160.038H408.014V166.58H416.08V160.038Z" fill="white"/>
<path d="M416.08 150.268H408.014V156.81H416.08V150.268Z" fill="white"/>
<path d="M277.401 52.0284C294.549 52.0284 308.451 40.3814 308.451 26.0142C308.451 11.6469 294.549 0 277.401 0C260.252 0 246.35 11.6469 246.35 26.0142C246.35 40.3814 260.252 52.0284 277.401 52.0284Z" fill="#FF6584"/>
<path d="M286.471 35.2708H165.436V186.641H286.471V35.2708Z" fill="#E6E6E6"/>
<path d="M280.008 43.3535H171.899V178.558H280.008V43.3535Z" fill="white"/>
<path d="M271.774 134.154L249.978 112.406H207.125L180.936 133.777L181.465 134.062H181.276V178.513H271.744V134.062L271.774 134.154Z" fill="#3F3D56"/>
<path d="M245.262 87.5836L248.203 85.6126C245.918 85.4013 244.979 86.4455 244.595 87.2719C243.369 86.9311 242.033 87.0001 240.866 87.4647L246.751 89.2547C246.455 88.5903 245.938 88.0106 245.262 87.5836Z" fill="#3F3D56"/>
<path d="M258.66 110.37H253.72V124.699H258.66V110.37Z" fill="#3F3D56"/>
<path d="M250.317 112.121L223.449 138.512V178.513H271.744V133.492L250.317 112.121Z" fill="#EE66AA"/>
<path d="M201.708 177.785C201.708 177.785 201.826 175.711 204.248 175.952L201.708 177.785Z" fill="#E6E6E6"/>
<path d="M201.024 175.811C201.693 175.811 202.236 175.356 202.236 174.795C202.236 174.234 201.693 173.78 201.024 173.78C200.354 173.78 199.812 174.234 199.812 174.795C199.812 175.356 200.354 175.811 201.024 175.811Z" fill="#EE66AA"/>
<path d="M201.169 176.505H200.827V178.512H201.169V176.505Z" fill="#E6E6E6"/>
<path d="M212.54 177.785C212.54 177.785 212.658 175.711 215.08 175.952L212.54 177.785Z" fill="#E6E6E6"/>
<path d="M211.856 175.811C212.525 175.811 213.068 175.356 213.068 174.795C213.068 174.234 212.525 173.78 211.856 173.78C211.186 173.78 210.644 174.234 210.644 174.795C210.644 175.356 211.186 175.811 211.856 175.811Z" fill="#EE66AA"/>
<path d="M212.001 176.505H211.659V178.512H212.001V176.505Z" fill="#E6E6E6"/>
<path d="M186.885 177.785C186.885 177.785 187.004 175.711 189.425 175.952L186.885 177.785Z" fill="#E6E6E6"/>
<path d="M186.201 175.811C186.871 175.811 187.413 175.356 187.413 174.795C187.413 174.234 186.871 173.78 186.201 173.78C185.532 173.78 184.989 174.234 184.989 174.795C184.989 175.356 185.532 175.811 186.201 175.811Z" fill="#EE66AA"/>
<path d="M186.346 176.505H186.004V178.512H186.346V176.505Z" fill="#E6E6E6"/>
<path d="M239.521 143.75H229.658V152.199H239.521V143.75Z" fill="#3F3D56"/>
<path d="M239.521 155.247H229.658V163.696H239.521V155.247Z" fill="#3F3D56"/>
<path d="M239.521 143.75H229.658V152.199H239.521V143.75Z" fill="white"/>
<path d="M239.521 155.247H229.658V163.696H239.521V155.247Z" fill="white"/>
<path d="M253.162 143.75H243.299V152.199H253.162V143.75Z" fill="#3F3D56"/>
<path d="M253.162 155.247H243.299V163.696H253.162V155.247Z" fill="#3F3D56"/>
<path d="M253.162 143.75H243.299V152.199H253.162V143.75Z" fill="white"/>
<path d="M253.162 155.247H243.299V163.696H253.162V155.247Z" fill="white"/>
<path d="M266.803 143.75H256.94V152.199H266.803V143.75Z" fill="#3F3D56"/>
<path d="M266.803 155.247H256.94V163.696H266.803V155.247Z" fill="#3F3D56"/>
<path d="M266.803 143.75H256.94V152.199H266.803V143.75Z" fill="white"/>
<path d="M266.803 155.247H256.94V163.696H266.803V155.247Z" fill="white"/>
<path d="M616.966 187.411H165.622C165.622 187.411 257.261 168.923 392.233 169.133C392.991 169.133 393.748 169.135 394.506 169.138C397.198 169.147 399.906 169.162 402.63 169.185C404.762 169.204 406.903 169.227 409.052 169.256C409.981 169.266 410.91 169.28 411.843 169.294C412.217 169.299 412.585 169.305 412.954 169.31C413.81 169.324 414.671 169.338 415.537 169.354C417.161 169.381 418.79 169.412 420.424 169.446C421.856 169.476 423.295 169.509 424.74 169.544C425.29 169.555 425.851 169.569 426.406 169.585C429.026 169.648 431.656 169.72 434.296 169.803C434.909 169.822 435.521 169.841 436.138 169.86C436.984 169.885 437.835 169.915 438.68 169.942C439.801 169.98 440.921 170.019 442.042 170.059C443.5 170.111 444.952 170.165 446.41 170.223C449.461 170.34 452.528 170.469 455.613 170.609C457.906 170.71 460.206 170.819 462.513 170.936C463.494 170.985 464.479 171.037 465.465 171.089C466.975 171.165 468.488 171.246 470.005 171.331C470.969 171.386 471.94 171.44 472.904 171.495C474.072 171.56 475.234 171.628 476.401 171.699C477.563 171.77 478.736 171.841 479.903 171.914C481.075 171.988 482.248 172.062 483.42 172.138C484.598 172.214 485.77 172.29 486.948 172.372C488.11 172.448 489.272 172.53 490.439 172.612C495.409 172.957 500.416 173.334 505.458 173.742C506.423 173.818 507.399 173.897 508.369 173.979C509.37 174.061 510.375 174.145 511.383 174.232C512.784 174.349 514.189 174.471 515.601 174.597C516.809 174.704 518.02 174.812 519.232 174.921C520.327 175.02 521.432 175.12 522.532 175.224L522.874 175.257C524.088 175.368 525.307 175.485 526.521 175.602C527.74 175.72 528.965 175.839 530.184 175.959C531.408 176.079 532.632 176.202 533.857 176.327C535.086 176.452 536.311 176.578 537.54 176.706C538.5 176.807 539.454 176.907 540.414 177.008C540.891 177.06 541.369 177.109 541.846 177.161C542.873 177.272 543.904 177.385 544.938 177.498C546.173 177.635 547.409 177.772 548.647 177.91C548.787 177.926 548.922 177.942 549.062 177.956C550.982 178.174 552.903 178.396 554.826 178.621C555.085 178.651 555.35 178.683 555.615 178.713C556.621 178.83 557.627 178.95 558.634 179.073C559.64 179.195 560.647 179.315 561.658 179.441C561.7 179.443 561.741 179.449 561.783 179.454C563.21 179.629 564.631 179.806 566.063 179.988C566.774 180.075 567.484 180.165 568.195 180.258C569.17 180.38 570.141 180.506 571.116 180.634C571.754 180.718 572.392 180.803 573.035 180.887C573.507 180.944 573.98 181.007 574.452 181.072C575.448 181.2 576.446 181.333 577.445 181.47C578.374 181.595 579.302 181.721 580.231 181.849C580.257 181.851 580.283 181.855 580.309 181.86C580.532 181.889 580.75 181.919 580.973 181.949C581.652 182.042 582.332 182.137 583.017 182.233C583.717 182.331 584.423 182.429 585.128 182.53C585.746 182.617 586.368 182.704 586.986 182.794C587.003 182.794 587.02 182.796 587.037 182.799C587.126 182.81 587.214 182.824 587.302 182.837C588.018 182.938 588.734 183.039 589.45 183.145C590.166 183.249 590.882 183.352 591.603 183.459C591.675 183.467 591.748 183.478 591.821 183.488C592.376 183.567 592.931 183.649 593.486 183.734C593.486 183.734 593.486 183.731 593.491 183.734C593.808 183.777 594.124 183.826 594.441 183.873C595.286 183.998 596.132 184.124 596.977 184.251C597.522 184.333 598.072 184.415 598.617 184.499C600.137 184.731 601.66 184.964 603.187 185.199C604.713 185.436 606.243 185.676 607.768 185.918C608.686 186.063 609.599 186.21 610.518 186.36C611.379 186.496 612.24 186.635 613.101 186.776C614.388 186.986 615.68 187.196 616.966 187.411Z" fill="#E6E6E6"/>
<path d="M616.828 187.99C615.684 187.799 614.536 187.612 613.39 187.425L612.966 187.356C612.106 187.214 611.247 187.076 610.387 186.94C609.466 186.79 608.555 186.643 607.638 186.499C606.112 186.256 604.586 186.017 603.059 185.78C601.724 185.573 600.389 185.368 599.056 185.166L598.491 185.08C598.025 185.008 597.557 184.938 597.092 184.868L596.853 184.833C596.084 184.716 595.316 184.601 594.548 184.488L594.191 184.436V184.442L593.36 184.315L593.314 184.308L593.234 184.296C592.724 184.219 592.214 184.144 591.702 184.071C591.629 184.06 591.57 184.051 591.51 184.044L589.33 183.727C588.647 183.626 587.967 183.53 587.287 183.434L587.185 183.42C587.095 183.406 587.014 183.393 586.934 183.384C586.321 183.296 585.772 183.219 585.226 183.142L580.117 182.431C579.189 182.303 578.261 182.177 577.333 182.053C576.333 181.917 575.337 181.785 574.345 181.656C573.87 181.59 573.402 181.528 572.935 181.472L571.006 181.217C570.033 181.089 569.064 180.965 568.091 180.842C567.379 180.749 566.67 180.66 565.961 180.573C564.527 180.39 563.106 180.213 561.681 180.039L561.556 180.025C560.907 179.945 560.26 179.866 559.615 179.789L558.533 179.658C557.528 179.535 556.523 179.415 555.518 179.298L554.73 179.206C552.804 178.98 550.883 178.758 548.968 178.541C548.859 178.531 548.741 178.517 548.62 178.503L537.453 177.292C536.224 177.164 535 177.039 533.771 176.913C532.548 176.788 531.325 176.666 530.102 176.546C528.883 176.426 527.659 176.306 526.441 176.189C525.228 176.072 524.01 175.955 522.797 175.844L522.451 175.811C521.355 175.708 520.25 175.607 519.157 175.509C518.021 175.404 516.889 175.303 515.761 175.205L515.527 175.185C514.117 175.06 512.712 174.938 511.313 174.82C510.305 174.733 509.301 174.649 508.3 174.567C507.33 174.485 506.356 174.406 505.393 174.33C500.458 173.93 495.408 173.55 490.381 173.2C489.192 173.117 488.042 173.036 486.893 172.961C485.713 172.879 484.543 172.803 483.366 172.726C482.195 172.65 481.023 172.576 479.851 172.503C478.805 172.437 477.755 172.374 476.712 172.31L476.35 172.288C475.184 172.217 474.024 172.149 472.858 172.084L469.957 171.921C468.444 171.836 466.933 171.756 465.422 171.678L465.159 171.664C464.261 171.617 463.365 171.571 462.471 171.526C460.165 171.412 457.867 171.303 455.577 171.199C452.495 171.058 449.429 170.929 446.378 170.813C444.921 170.756 443.469 170.701 442.012 170.649C440.995 170.612 439.979 170.577 438.963 170.543L437.794 170.504C437.234 170.485 436.672 170.467 436.114 170.451L434.27 170.394C431.632 170.312 429.004 170.239 426.386 170.176C425.829 170.159 425.271 170.146 424.724 170.135C423.274 170.099 421.838 170.067 420.407 170.037C418.774 170.004 417.146 169.973 415.523 169.944L411.831 169.885C410.898 169.871 409.969 169.858 409.043 169.846C406.889 169.816 404.753 169.795 402.622 169.775C399.9 169.751 397.193 169.735 394.503 169.729L394.296 169.728C393.608 169.726 392.921 169.724 392.233 169.724C391.485 169.722 390.73 169.722 389.983 169.722C257.847 169.722 166.698 187.802 165.788 187.985L165.457 186.837C166.369 186.653 257.695 168.54 389.983 168.54C390.739 168.54 391.477 168.541 392.235 168.542C392.923 168.542 393.612 168.544 394.302 168.547L394.508 168.548C397.202 168.556 399.912 168.571 402.637 168.594C404.771 168.613 406.91 168.635 409.064 168.665C409.992 168.676 410.922 168.688 411.856 168.703L415.553 168.763C417.176 168.79 418.806 168.821 420.441 168.856C421.875 168.886 423.315 168.918 424.761 168.954C425.31 168.965 425.873 168.979 426.431 168.995C429.048 169.057 431.678 169.13 434.323 169.213L436.164 169.27C436.724 169.286 437.287 169.305 437.85 169.324L439.021 169.362C440.038 169.397 441.055 169.433 442.072 169.469C443.531 169.521 444.984 169.575 446.443 169.632C449.495 169.75 452.565 169.879 455.652 170.02C457.945 170.12 460.246 170.229 462.554 170.347C463.45 170.391 464.347 170.438 465.247 170.485L465.509 170.499C467.019 170.576 468.533 170.656 470.051 170.742L472.952 170.906C474.12 170.971 475.284 171.039 476.452 171.11L476.814 171.132C477.858 171.195 478.91 171.259 479.956 171.325C481.129 171.399 482.302 171.473 483.475 171.549C484.654 171.625 485.828 171.701 487.006 171.783C488.156 171.859 489.308 171.938 490.465 172.021C495.531 172.373 500.587 172.754 505.527 173.154C506.491 173.23 507.468 173.309 508.44 173.391C509.44 173.473 510.447 173.557 511.455 173.645C512.855 173.762 514.262 173.884 515.676 174.01L515.909 174.031C517.04 174.13 518.174 174.231 519.31 174.334C520.403 174.432 521.509 174.533 522.611 174.637L522.954 174.67C524.166 174.781 525.387 174.898 526.602 175.016C527.821 175.133 529.046 175.253 530.266 175.373C531.492 175.493 532.717 175.615 533.942 175.741C535.173 175.866 536.397 175.991 537.627 176.12L548.816 177.333C548.926 177.346 549.032 177.358 549.143 177.369C551.078 177.589 552.998 177.809 554.924 178.036L555.709 178.128C556.72 178.245 557.729 178.366 558.735 178.488L559.816 178.619C560.464 178.697 561.112 178.776 561.762 178.856C561.78 178.861 561.833 178.863 561.893 178.871C563.313 179.044 564.738 179.222 566.169 179.404C566.878 179.491 567.59 179.581 568.304 179.674C569.276 179.796 570.248 179.922 571.225 180.05L573.145 180.304C573.613 180.36 574.09 180.423 574.567 180.49C575.557 180.617 576.554 180.749 577.558 180.887C578.487 181.012 579.416 181.138 580.346 181.266C580.391 181.27 580.436 181.277 580.48 181.286L585.46 181.977C585.988 182.052 586.519 182.127 587.047 182.203L587.177 182.22C587.237 182.227 587.333 182.241 587.429 182.256L587.521 182.269C588.205 182.366 588.889 182.462 589.574 182.564L591.725 182.877C591.776 182.882 591.857 182.894 591.938 182.906C592.414 182.974 592.889 183.043 593.363 183.115L593.508 183.047L593.745 183.17C593.908 183.193 594.07 183.218 594.234 183.242L594.795 183.325C595.564 183.439 596.333 183.554 597.103 183.67L597.341 183.705C597.809 183.776 598.279 183.846 598.745 183.918L599.308 184.004C600.642 184.207 601.978 184.412 603.316 184.618C604.842 184.855 606.374 185.095 607.9 185.338C608.818 185.482 609.734 185.63 610.653 185.78C611.511 185.915 612.375 186.055 613.238 186.197L613.659 186.266C614.807 186.452 615.958 186.64 617.104 186.832L616.828 187.99Z" fill="#3F3D56"/>
<path d="M476.058 98.8677C505.418 98.8677 529.218 78.9276 529.218 54.3303C529.218 29.733 505.418 9.79297 476.058 9.79297C446.699 9.79297 422.899 29.733 422.899 54.3303C422.899 78.9276 446.699 98.8677 476.058 98.8677Z" fill="#EE66AA"/>
<path opacity="0.2" d="M515.602 24.5828C520.56 34.3005 521.233 45.1788 517.499 55.2738C513.766 65.3688 505.87 74.0227 495.221 79.689C484.573 85.3553 471.867 87.6649 459.374 86.205C446.88 84.7451 435.413 79.6109 427.022 71.7198C430.051 77.6569 434.585 82.9714 440.309 87.2948C446.033 91.6183 452.81 94.8475 460.172 96.7586C467.533 98.6698 475.302 99.2172 482.941 98.3629C490.58 97.5087 497.906 95.2732 504.412 91.8114C510.917 88.3496 516.447 83.7442 520.617 78.3143C524.787 72.8844 527.498 66.7598 528.562 60.3649C529.627 53.97 529.019 47.4577 526.781 41.2792C524.543 35.1006 520.729 29.4036 515.602 24.5828Z" fill="black"/>
<path d="M476.204 54.3304H476.35L478.979 180.601H473.43L476.204 54.3304Z" fill="#3F3D56"/>
<path d="M485.884 123.109L484.659 121.16L475.872 125.036L477.096 126.985L485.884 123.109Z" fill="#3F3D56"/>
<path d="M349.143 181.67C349.143 181.67 349.367 177.728 353.97 178.186L349.143 181.67Z" fill="#3F3D56"/>
<path d="M347.842 177.919C349.114 177.919 350.146 177.055 350.146 175.989C350.146 174.923 349.114 174.059 347.842 174.059C346.57 174.059 345.538 174.923 345.538 175.989C345.538 177.055 346.57 177.919 347.842 177.919Z" fill="#EE66AA"/>
<path d="M348.118 179.239H347.467V183.053H348.118V179.239Z" fill="#3F3D56"/>
<path d="M433.028 182.487C433.028 182.487 433.252 178.546 437.855 179.004L433.028 182.487Z" fill="#3F3D56"/>
<path d="M431.727 178.736C432.999 178.736 434.031 177.872 434.031 176.806C434.031 175.74 432.999 174.876 431.727 174.876C430.455 174.876 429.423 175.74 429.423 176.806C429.423 177.872 430.455 178.736 431.727 178.736Z" fill="#EE66AA"/>
<path d="M432.002 180.056H431.352V183.87H432.002V180.056Z" fill="#3F3D56"/>
<path d="M294.845 175.677C294.845 175.677 295.07 171.736 299.672 172.194L294.845 175.677Z" fill="#3F3D56"/>
<path d="M293.545 171.926C294.817 171.926 295.848 171.062 295.848 169.996C295.848 168.93 294.817 168.066 293.545 168.066C292.272 168.066 291.241 168.93 291.241 169.996C291.241 171.062 292.272 171.926 293.545 171.926Z" fill="#EE66AA"/>
<path d="M293.82 173.246H293.17V177.06H293.82V173.246Z" fill="#3F3D56"/>
<path d="M330.285 170.501C330.285 170.501 330.509 166.56 335.112 167.018L330.285 170.501Z" fill="#3F3D56"/>
<path d="M328.984 166.751C330.257 166.751 331.288 165.887 331.288 164.821C331.288 163.755 330.257 162.891 328.984 162.891C327.712 162.891 326.681 163.755 326.681 164.821C326.681 165.887 327.712 166.751 328.984 166.751Z" fill="#EE66AA"/>
<path d="M329.26 168.071H328.609V171.884H329.26V168.071Z" fill="#3F3D56"/>
<path d="M419.047 177.856C419.047 177.856 419.271 173.915 423.874 174.373L419.047 177.856Z" fill="#3F3D56"/>
<path d="M417.746 174.105C419.019 174.105 420.05 173.241 420.05 172.175C420.05 171.109 419.019 170.245 417.746 170.245C416.474 170.245 415.443 171.109 415.443 172.175C415.443 173.241 416.474 174.105 417.746 174.105Z" fill="#EE66AA"/>
<path d="M418.022 175.425H417.371V179.239H418.022V175.425Z" fill="#3F3D56"/>
<path d="M354.553 10.7505L357.546 8.74488C355.221 8.52996 354.266 9.5924 353.875 10.4333C352.627 10.0865 351.268 10.1568 350.081 10.6296L356.069 12.451C355.767 11.775 355.241 11.1851 354.553 10.7505Z" fill="#3F3D56"/>
<path d="M400.072 31.1804L403.065 29.1748C400.74 28.9599 399.785 30.0223 399.394 30.8633C398.146 30.5165 396.787 30.5868 395.6 31.0595L401.588 32.881C401.286 32.2049 400.76 31.615 400.072 31.1804Z" fill="#3F3D56"/>
<path d="M350.977 48.614L353.97 46.6084C351.645 46.3935 350.689 47.4559 350.298 48.2968C349.051 47.95 347.692 48.0203 346.504 48.4931L352.493 50.3145C352.191 49.6385 351.665 49.0486 350.977 48.614Z" fill="#3F3D56"/>
<path d="M105.194 193.958C108.268 193.157 109.598 189.377 108.164 185.514C106.731 181.651 103.077 179.168 100.003 179.968C96.9294 180.769 95.5994 184.549 97.0326 188.412C98.4659 192.276 102.12 194.758 105.194 193.958Z" fill="#2F2E41"/>
<path d="M37.0272 155.467C37.0272 155.467 35.2786 184.766 38.7758 204.298C42.2729 223.831 46.3529 242.387 46.3529 242.387C46.3529 242.387 56.2614 236.039 62.09 237.993L51.5986 170.116L37.0272 155.467Z" fill="#EE66AA"/>
<path d="M74.0385 123.482C84.6613 123.482 93.2728 116.267 93.2728 107.367C93.2728 98.4672 84.6613 91.2524 74.0385 91.2524C63.4158 91.2524 54.8043 98.4672 54.8043 107.367C54.8043 116.267 63.4158 123.482 74.0385 123.482Z" fill="#FFB8B8"/>
<path d="M61.5073 111.518L53.3475 129.097L65.0045 133.492L76.6615 115.913L61.5073 111.518Z" fill="#FFB8B8"/>
<path d="M68.4847 128.244C68.4847 128.244 56.8443 121.772 51.5986 124.214L46.9357 133.492C46.9357 133.492 30.6158 150.583 37.0272 163.28C43.4386 175.976 58.01 190.626 58.01 190.626L59.7586 197.462C59.7586 197.462 37.0272 222.366 39.3586 240.922L11.9644 303.427C11.9644 303.427 27.1186 308.799 77.8271 310.752C128.536 312.705 128.536 310.752 128.536 310.752C128.536 310.752 122.124 206.74 102.307 190.137L99.3928 182.324C99.3928 182.324 103.473 160.35 94.1471 151.072L90.996 145.792C86.2625 137.86 78.268 131.628 68.4847 128.244Z" fill="#2F2E41"/>
<path d="M97.6442 233.109L98.8099 246.294C98.8099 246.294 97.0613 263.385 108.718 259.967C120.376 256.549 111.05 237.504 111.05 237.504L109.301 231.644L97.6442 233.109Z" fill="#FFB8B8"/>
<path d="M16.6272 300.986L10.2158 353.236C10.2158 353.236 2.05581 357.142 6.13581 367.885C10.2158 378.629 9.05009 384 9.05009 384L13.1301 383.023L14.8787 369.839C14.8787 369.839 21.7272 377.164 27.7015 378.629C31.8503 379.646 36.1397 380.428 38.9592 377.703C42.2435 374.53 40.659 369.629 36.1187 367.847C35.6594 367.666 35.1836 367.515 34.6958 367.397C30.6158 366.421 26.5358 353.236 26.5358 353.236L33.5301 329.308L44.0215 302.939L16.6272 300.986Z" fill="#2F2E41"/>
<path d="M95.8956 300.986L89.4842 353.236C89.4842 353.236 81.3242 357.142 85.4042 367.885C89.4842 378.629 88.3185 384 88.3185 384L92.3985 383.023L94.1471 369.839C94.1471 369.839 100.996 377.164 106.97 378.629C111.119 379.646 115.408 380.428 118.228 377.703C121.512 374.53 119.927 369.629 115.387 367.847C114.928 367.666 114.452 367.515 113.964 367.397C109.884 366.421 105.804 353.236 105.804 353.236L112.798 329.308L123.29 302.939L95.8956 300.986Z" fill="#2F2E41"/>
<path opacity="0.4" d="M71.4157 137.399C71.4157 137.399 57.4271 144.235 61.5071 159.861C65.5871 175.487 94.1471 242.387 94.1471 242.387C96.6416 240.352 99.7427 238.916 103.126 238.229C106.51 237.542 110.052 237.629 113.381 238.481L87.1528 154.001C87.1528 154.001 88.9013 134.957 71.4157 137.399Z" fill="black"/>
<path d="M73.7471 134.469C73.7471 134.469 59.7586 141.305 63.8386 156.931C67.9186 172.558 96.4785 239.457 96.4785 239.457C98.973 237.423 102.074 235.987 105.458 235.299C108.841 234.612 112.383 234.699 115.713 235.551L89.4842 151.072C89.4842 151.072 91.2328 132.027 73.7471 134.469Z" fill="#EE66AA"/>
<path d="M91.8205 101.118C91.8205 101.118 94.7836 81.798 70.607 88.1333C70.607 88.1333 53.3399 85.479 47.6774 103.574L41.9437 122.543L44.738 121.268L46.0407 123.654L50.5688 124.615L52.5065 121.393L53.4439 125.306L90.5315 128.403C90.5315 128.403 73.9207 120.173 73.6573 105.423L76.8213 108.224L91.8205 101.118Z" fill="#2F2E41"/>
<path d="M50.7243 96.1356C55.8747 96.1356 60.05 92.6376 60.05 88.3225C60.05 84.0075 55.8747 80.5094 50.7243 80.5094C45.5738 80.5094 41.3986 84.0075 41.3986 88.3225C41.3986 92.6376 45.5738 96.1356 50.7243 96.1356Z" fill="#2F2E41"/>
<path d="M60.3336 86.4097C60.1804 84.4275 59.131 82.5686 57.3992 81.2119C55.6673 79.8552 53.3833 79.1025 51.0123 79.1073C51.2049 79.0868 51.3957 79.062 51.5921 79.0514C52.8142 78.9855 54.0399 79.122 55.1991 79.4531C56.3583 79.7841 57.4283 80.3031 58.348 80.9806C59.2678 81.6581 60.0192 82.4807 60.5595 83.4015C61.0998 84.3223 61.4183 85.3232 61.4969 86.3471C61.5755 87.371 61.4126 88.3979 61.0175 89.369C60.6224 90.3402 60.0028 91.2367 59.1942 92.0072C58.3856 92.7778 57.4037 93.4074 56.3047 93.86C55.2056 94.3127 54.0109 94.5796 52.7888 94.6454C52.5924 94.656 52.3993 94.6518 52.2052 94.6521C54.5575 94.4025 56.7076 93.411 58.2178 91.8796C59.728 90.3483 60.4846 88.3922 60.3336 86.4097Z" fill="#2F2E41"/>
<path d="M74.0385 112.25C75.6481 112.25 76.9528 110.72 76.9528 108.832C76.9528 106.944 75.6481 105.414 74.0385 105.414C72.429 105.414 71.1243 106.944 71.1243 108.832C71.1243 110.72 72.429 112.25 74.0385 112.25Z" fill="#FFB8B8"/>
</g>
<defs>
<clipPath id="clip0">
<rect width="618" height="384" fill="white"/>
</clipPath>
</defs>
</svg>
