<svg width="1000" height="180" viewBox="0 0 1000 180" fill="none" xmlns="http://www.w3.org/2000/svg">
<path d="M203.605 137.642H219.414V100.568H259.855V137.642H275.707V50.3696H259.855V87.3156H219.414V50.3696H203.605V137.642ZM311.055 138.963C321.325 138.963 327.461 134.148 330.274 128.651H330.785V137.642H345.615V93.8355C345.615 76.5344 331.51 71.3355 319.024 71.3355C305.26 71.3355 294.691 77.4719 291.282 89.4037L305.686 91.4492C307.22 86.9747 311.566 83.1395 319.109 83.1395C326.268 83.1395 330.189 86.8043 330.189 93.2389V93.4946C330.189 97.9264 325.544 98.1395 313.995 99.3753C301.297 100.739 289.152 104.532 289.152 119.276C289.152 132.145 298.569 138.963 311.055 138.963ZM315.061 127.628C308.626 127.628 304.024 124.688 304.024 119.02C304.024 113.097 309.18 110.625 316.083 109.645C320.132 109.091 328.228 108.068 330.231 106.449V114.162C330.231 121.449 324.351 127.628 315.061 127.628ZM361.126 137.642H376.552V99.1622C376.552 90.8526 382.816 84.9719 391.297 84.9719C393.896 84.9719 397.135 85.4406 398.456 85.8668V71.6764C397.049 71.4207 394.62 71.2503 392.916 71.2503C385.416 71.2503 379.152 75.5117 376.765 83.0969H376.083V72.1878H361.126V137.642ZM408.704 137.642H424.13V97.8412C424.13 89.7872 429.5 84.3327 436.147 84.3327C442.667 84.3327 447.142 88.7219 447.142 95.4548V137.642H462.27V96.8185C462.27 89.4463 466.659 84.3327 474.116 84.3327C480.338 84.3327 485.281 87.9974 485.281 96.094V137.642H500.75V93.7077C500.75 79.0912 492.312 71.3355 480.295 71.3355C470.792 71.3355 463.548 76.023 460.65 83.3099H459.968C457.454 75.8952 451.105 71.3355 442.284 71.3355C433.505 71.3355 426.943 75.8526 424.216 83.3099H423.449V72.1878H408.704V137.642ZM544.951 138.921C564.127 138.921 576.314 125.412 576.314 105.171C576.314 84.8867 564.127 71.3355 544.951 71.3355C525.775 71.3355 513.587 84.8867 513.587 105.171C513.587 125.412 525.775 138.921 544.951 138.921ZM545.036 126.563C534.425 126.563 529.226 117.103 529.226 105.128C529.226 93.1537 534.425 83.5656 545.036 83.5656C555.476 83.5656 560.675 93.1537 560.675 105.128C560.675 117.103 555.476 126.563 545.036 126.563ZM604.833 99.2901C604.833 89.8298 610.544 84.3753 618.683 84.3753C626.652 84.3753 631.424 89.6168 631.424 98.3526V137.642H646.851V95.9662C646.893 80.2844 637.944 71.3355 624.436 71.3355C614.635 71.3355 607.902 76.023 604.919 83.3099H604.152V72.1878H589.407V137.642H604.833V99.2901ZM669.777 162.188C681.794 162.188 688.74 156.009 692.447 145.568L718.74 72.273L702.248 72.1878L687.12 121.62H686.439L671.353 72.1878H654.99L678.726 139.006L677.404 142.543C674.549 150 670.032 150.512 663.299 148.551L659.72 160.568C661.808 161.421 665.558 162.188 669.777 162.188ZM730.128 137.642H745.938V111.648L755.611 100.228L781.648 137.642H800.654L766.605 89.5315L800.355 50.3696H781.052L747.003 90.469H745.938V50.3696H730.128V137.642ZM834.404 138.921C853.58 138.921 865.767 125.412 865.767 105.171C865.767 84.8867 853.58 71.3355 834.404 71.3355C815.228 71.3355 803.04 84.8867 803.04 105.171C803.04 125.412 815.228 138.921 834.404 138.921ZM834.489 126.563C823.878 126.563 818.679 117.103 818.679 105.128C818.679 93.1537 823.878 83.5656 834.489 83.5656C844.929 83.5656 850.128 93.1537 850.128 105.128C850.128 117.103 844.929 126.563 834.489 126.563ZM930.593 89.4889C928.463 78.4094 919.599 71.3355 904.258 71.3355C888.491 71.3355 877.753 79.0912 877.795 91.1935C877.753 100.739 883.633 107.046 896.204 109.645L907.369 111.989C913.378 113.31 916.19 115.739 916.19 119.446C916.19 123.921 911.332 127.287 904.003 127.287C896.929 127.287 892.326 124.219 891.005 118.338L875.963 119.787C877.88 131.804 887.98 138.921 904.045 138.921C920.409 138.921 931.957 130.441 932 118.04C931.957 108.708 925.949 102.997 913.591 100.313L902.426 97.9264C895.778 96.4349 893.136 94.1338 893.179 90.3412C893.136 85.9094 898.037 82.8412 904.471 82.8412C911.588 82.8412 915.338 86.719 916.531 91.023L930.593 89.4889ZM977.404 72.1878H964.493V56.506H949.066V72.1878H939.777V84.1196H949.066V120.512C948.981 132.827 957.93 138.878 969.521 138.537C973.91 138.409 976.936 137.557 978.598 137.003L975.998 124.943C975.146 125.157 973.399 125.54 971.481 125.54C967.603 125.54 964.493 124.176 964.493 117.955V84.1196H977.404V72.1878Z" fill="white"/>
<path d="M140.694 160.383H22.0801C18.8404 160.383 16.2046 156.839 16.2046 152.482V45.8591C16.2198 44.9705 16.4147 44.1092 16.7638 43.3872C17.113 42.6652 17.6003 42.1159 18.1625 41.8105L73.3917 9.00367C78.4666 6.0222 84.1151 6.01801 89.1921 8.99194L144.609 41.812C145.172 42.1166 145.66 42.6659 146.01 43.3883C146.359 44.1107 146.555 44.9728 146.57 45.8623V152.482C146.57 156.839 143.934 160.383 140.694 160.383Z" fill="white"/>
<path d="M53.6919 87.1106V76.083C53.6919 74.6448 53.3071 73.2654 52.6222 72.2484C51.9374 71.2314 51.0085 70.66 50.0399 70.66H31.3006C30.3321 70.66 29.4032 71.2314 28.7183 72.2484C28.0334 73.2654 27.6487 74.6448 27.6487 76.083V87.1106H53.6919Z" fill="#EE66AA"/>
<path d="M27.6487 88.8427V105.931C27.6487 107.369 28.0334 108.749 28.7183 109.766C29.4032 110.783 30.3321 111.354 31.3006 111.354H50.0399C51.0085 111.354 51.9374 110.783 52.6222 109.766C53.3071 108.749 53.6919 107.369 53.6919 105.931V88.8427H27.6487Z" fill="#EE66AA"/>
<path d="M142.059 56.8422L85.7978 26.2161C82.3783 24.3547 78.625 24.3547 75.2055 26.2161L18.9443 56.8422C17.7585 57.4876 16.4853 57.6985 15.2329 57.457C13.9805 57.2154 12.7858 56.5284 11.7504 55.4545C10.7151 54.3806 9.86957 52.9514 9.28576 51.2884C8.70196 49.6253 8.39709 47.7776 8.39709 45.9022V45.9022C8.39709 43.5156 8.89063 41.1865 9.81096 39.23C10.7313 37.2734 12.034 35.7837 13.543 34.9623L75.2055 1.39607C78.625 -0.465358 82.3783 -0.465358 85.7978 1.39607L147.46 34.9623C148.969 35.7837 150.272 37.2734 151.192 39.23C152.113 41.1865 152.606 43.5156 152.606 45.9022V45.9022C152.606 47.7776 152.301 49.6253 151.718 51.2884C151.134 52.9514 150.288 54.3806 149.253 55.4545C148.217 56.5284 147.023 57.2154 145.77 57.457C144.518 57.6985 143.245 57.4876 142.059 56.8422Z" fill="#3F3D56"/>
<path d="M89.5861 160.894H74.5492C72.9534 160.891 71.4235 159.949 70.2951 158.273C69.1667 156.597 68.532 154.326 68.5302 151.956V97.8799C68.532 95.5102 69.1667 93.2383 70.2951 91.5627C71.4235 89.887 72.9534 88.9445 74.5492 88.9418H89.5861C91.1818 88.9445 92.7118 89.887 93.8402 91.5627C94.9685 93.2383 95.6033 95.5102 95.6051 97.8799V151.956C95.6033 154.326 94.9685 156.597 93.8402 158.273C92.7118 159.949 91.1818 160.891 89.5861 160.894V160.894ZM74.5492 90.474C73.227 90.4763 71.9593 91.2573 71.0244 92.6456C70.0894 94.034 69.5635 95.9164 69.562 97.8799V151.956C69.5635 153.919 70.0894 155.802 71.0244 157.19C71.9593 158.578 73.227 159.359 74.5492 159.362H89.5861C90.9083 159.359 92.1759 158.578 93.1109 157.19C94.0458 155.802 94.5717 153.919 94.5733 151.956V97.8799C94.5717 95.9164 94.0458 94.034 93.1109 92.6456C92.1759 91.2573 90.9083 90.4763 89.5861 90.474H74.5492Z" fill="#3F3D56"/>
<path d="M27.8435 105.837C27.0644 105.837 26.3172 106.296 25.7663 107.114C25.2154 107.933 24.9059 109.042 24.9059 110.199C24.9059 111.356 25.2154 112.466 25.7663 113.284C26.3172 114.102 27.0644 114.561 27.8435 114.561H53.498C54.2771 114.561 55.0243 114.102 55.5752 113.284C56.1261 112.466 56.4356 111.356 56.4356 110.199C56.4356 109.042 56.1261 107.933 55.5752 107.114C55.0243 106.296 54.2771 105.837 53.498 105.837H27.8435Z" fill="#CCCCCC"/>
<path d="M107.527 88.8427V105.931C107.527 107.369 107.912 108.749 108.597 109.766C109.282 110.783 110.211 111.354 111.179 111.354H129.919C130.887 111.354 131.816 110.783 132.501 109.766C133.186 108.749 133.57 107.369 133.57 105.931V88.8427H107.527Z" fill="#EE66AA"/>
<path d="M133.57 87.1106V76.083C133.57 74.6448 133.186 73.2654 132.501 72.2484C131.816 71.2314 130.887 70.66 129.919 70.66H111.179C110.211 70.66 109.282 71.2314 108.597 72.2484C107.912 73.2654 107.527 74.6448 107.527 76.083V87.1106H133.57Z" fill="#EE66AA"/>
<path d="M91.0075 126.65C92.1882 126.65 93.1454 125.228 93.1454 123.475C93.1454 121.722 92.1882 120.3 91.0075 120.3C89.8268 120.3 88.8696 121.722 88.8696 123.475C88.8696 125.228 89.8268 126.65 91.0075 126.65Z" fill="#3F3D56"/>
<path d="M1.6211 108.288C2.51641 108.288 3.2422 107.21 3.2422 105.88C3.2422 104.551 2.51641 103.473 1.6211 103.473C0.725791 103.473 0 104.551 0 105.88C0 107.21 0.725791 108.288 1.6211 108.288Z" fill="white"/>
<path d="M133.182 115.072H107.528C106.657 115.072 105.823 114.559 105.207 113.645C104.592 112.731 104.246 111.492 104.246 110.199C104.246 108.907 104.592 107.667 105.207 106.753C105.823 105.84 106.657 105.326 107.528 105.326H133.182C134.052 105.326 134.887 105.84 135.503 106.753C136.118 107.667 136.464 108.907 136.464 110.199C136.464 111.492 136.118 112.731 135.503 113.645C134.887 114.559 134.052 115.072 133.182 115.072Z" fill="#CCCCCC"/>
</svg>
