<svg width="130" height="110" viewBox="0 0 130 110" fill="none" xmlns="http://www.w3.org/2000/svg">
<g clip-path="url(#clip0)">
<path d="M130 106.587C130.002 104.683 119.516 103.125 106.58 103.107C93.6429 103.089 83.1541 104.617 83.1521 106.52C83.1501 108.424 93.6358 109.981 106.572 110C119.509 110.018 129.998 108.49 130 106.587Z" fill="#3F3D56"/>
<path opacity="0.1" d="M123.862 106.578C123.864 105.173 116.126 104.024 106.579 104.01C97.0318 103.996 89.2914 105.124 89.2899 106.529C89.2884 107.933 97.0265 109.083 106.573 109.097C116.12 109.11 123.861 107.983 123.862 106.578Z" fill="black"/>
<path d="M98.7519 95.04L99.1399 101.041C99.1399 101.041 96.2951 106.946 99.2916 106.858C102.288 106.77 102.525 106.401 102.525 106.401L102.527 104.554L102.531 100.585L101.67 94.4902L98.7519 95.04Z" fill="#2F2E41"/>
<path d="M110.657 96.534C110.657 96.534 111.364 99.0276 110.81 100.689C110.257 102.35 110.016 106.227 110.41 106.32C110.805 106.412 112.696 106.877 112.696 106.877C112.696 106.877 117.268 108.73 119.24 107.994C121.212 107.258 120.898 106.15 120.898 106.15C120.898 106.15 120.426 104.58 118.928 104.485C117.43 104.391 113.968 97.7389 113.89 96.2616C113.813 94.7844 110.657 96.534 110.657 96.534Z" fill="#2F2E41"/>
<path d="M100.849 19.9402C104.725 19.9402 107.867 16.2616 107.867 11.7237C107.867 7.18586 104.725 3.5072 100.849 3.5072C96.9733 3.5072 93.8313 7.18586 93.8313 11.7237C93.8313 16.2616 96.9733 19.9402 100.849 19.9402Z" fill="#FF6584"/>
<path d="M98.3598 17.0286C98.3598 17.0286 98.9864 21.0916 97.0928 22.1967C95.1992 23.3019 100.638 25.433 100.638 25.433L103.004 24.6978L104.506 20.9148C104.506 20.9148 102.614 20.7274 103.091 17.4046L98.3598 17.0286Z" fill="#FFB9B9"/>
<path opacity="0.1" d="M98.3598 17.0286C98.3598 17.0286 98.9864 21.0916 97.0928 22.1967C95.1992 23.3019 100.638 25.433 100.638 25.433L103.004 24.6978L104.506 20.9148C104.506 20.9148 102.614 20.7274 103.091 17.4046L98.3598 17.0286Z" fill="black"/>
<path d="M91.091 30.8663L90.9241 39.7289L88.9371 54.8666C88.9371 54.8666 89.0078 62.7139 91.0575 63.1785C93.1071 63.643 91.0662 54.7773 91.0662 54.7773L94.0386 42.25L94.6389 31.333L91.091 30.8663Z" fill="#FFB9B9"/>
<path d="M100.61 19.2013C103.093 19.2013 105.105 16.8453 105.105 13.939C105.105 11.0328 103.093 8.67676 100.61 8.67676C98.128 8.67676 96.1158 11.0328 96.1158 13.939C96.1158 16.8453 98.128 19.2013 100.61 19.2013Z" fill="#FFB9B9"/>
<path d="M107.64 40.3065C108.427 41.8771 108.189 43.7231 107.321 43.7219C106.454 43.7207 94.7855 42.0423 94.7855 42.0423L95.4984 38.9044C95.4984 38.9044 94.7901 37.6109 95.2641 36.7807C95.738 35.9505 94.7945 33.3642 94.7945 33.3642L92.9913 23.2987L93.9379 22.9511L95.5148 22.3726L97.251 21.7353C97.251 21.7353 98.4317 23.768 101.35 23.1259C101.35 23.1259 103.163 23.4055 104.191 20.6373C104.412 20.6416 104.633 20.6744 104.848 20.7352C105.066 20.802 105.278 20.914 105.373 21.1006C105.469 21.2863 106.023 21.4136 106.652 21.4985C107.586 21.6245 108.685 21.6593 108.685 21.6593L107.807 31.9056C107.807 31.9056 106.853 38.7359 107.64 40.3065Z" fill="#EE66AA"/>
<path d="M93.6222 23.2996L92.9913 23.2987C92.9913 23.2987 90.4656 25.6954 90.775 31.4198C90.775 31.4198 91.011 31.974 92.8242 32.3459C94.6375 32.7177 95.4269 31.7957 95.4269 31.7957L93.6222 23.2996Z" fill="#EE66AA"/>
<path d="M105.443 30.0559C105.443 30.0559 95.3507 29.3029 95.4281 30.6879C95.5055 32.0728 94.7926 35.2107 95.1074 35.765C95.4223 36.3194 95.8039 38.5914 95.3348 39.6246C95.0536 40.2418 94.8426 40.8994 94.7071 41.5807C94.7071 41.5807 94.0765 41.3951 93.601 43.7025C93.1255 46.0098 90.753 52.6535 91.6957 56.0707C92.6384 59.4879 95.691 81.2799 95.691 81.2799L97.7263 95.5925C97.7263 95.5925 101.116 96.3359 102.3 94.8604L101.214 78.0565L100.444 59.776C100.444 59.776 105.709 77.509 106.497 78.0641L109.71 96.902C109.71 96.902 113.336 98.3843 114.6 95.9858L113.116 82.2279C113.116 82.2279 112.252 79.5494 112.569 78.165C112.885 76.7807 112.019 75.7639 112.019 75.7639L108.806 56.2797C108.806 56.2797 107.863 54.0627 108.653 52.402C109.443 50.7414 107.243 43.168 107.243 43.168C107.243 43.168 105.828 39.2885 106.303 37.0735C106.779 34.8584 105.443 30.0559 105.443 30.0559Z" fill="#2F2E41"/>
<path d="M111.043 28.7713L112.609 39.2058C112.609 39.2058 112.844 40.7755 112.132 43.3595C111.419 45.9435 108.653 52.125 108.653 52.125L107.237 49.1687L109.612 39.7554L107.652 28.7665L111.043 28.7713Z" fill="#FFB9B9"/>
<path d="M97.0057 30.1361L95.5366 31.0138L93.9351 25.6081L93.9379 22.9511L95.5148 22.3727L95.7498 24.5951L97.0057 30.1361Z" fill="#2F2E41"/>
<path d="M106.652 21.4985L105.364 30.3788L103.314 30.3759L104.848 20.7352C105.066 20.802 105.278 20.914 105.373 21.1006C105.469 21.2863 106.023 21.4136 106.652 21.4985Z" fill="#2F2E41"/>
<path d="M107.738 22.2119L108.685 21.6593C108.685 21.6593 112.7 27.2966 111.515 29.6029C110.33 31.9092 106.862 30.4272 106.862 30.4272L107.738 22.2119Z" fill="#EE66AA"/>
<path d="M101.567 7.01635C103.222 7.01635 104.564 5.44569 104.564 3.50818C104.564 1.57066 103.222 0 101.567 0C99.9125 0 98.571 1.57066 98.571 3.50818C98.571 5.44569 99.9125 7.01635 101.567 7.01635Z" fill="#FF6584"/>
<path d="M104.48 8.68222C104.481 7.2036 102.752 6.00247 100.619 5.99943C98.4847 5.99639 96.7536 7.1926 96.752 8.67122C96.7505 10.1498 98.4791 11.351 100.613 11.354C102.747 11.357 104.478 10.1608 104.48 8.68222Z" fill="#FF6584"/>
<path d="M96.2556 31.566C96.4734 31.566 96.6499 31.3594 96.6499 31.1044C96.6499 30.8495 96.4734 30.6428 96.2556 30.6428C96.0379 30.6428 95.8614 30.8495 95.8614 31.1044C95.8614 31.3594 96.0379 31.566 96.2556 31.566Z" fill="#EE66AA"/>
<path d="M104.693 31.578C104.911 31.578 105.087 31.3713 105.087 31.1164C105.087 30.8615 104.911 30.6548 104.693 30.6548C104.475 30.6548 104.299 30.8615 104.299 31.1164C104.299 31.3713 104.475 31.578 104.693 31.578Z" fill="#EE66AA"/>
<path d="M84.1759 76.3313H76.0339V78.8245H84.1759V76.3313Z" fill="#F2F2F2"/>
</g>
<defs>
<clipPath id="clip0">
<rect width="130" height="110" fill="white"/>
</clipPath>
</defs>
</svg>
